<?xml version="1.0" standalone="no"?>
<!DOCTYPE svg PUBLIC "-//W3C//DTD SVG 20010904//EN"
 "http://www.w3.org/TR/2001/REC-SVG-20010904/DTD/svg10.dtd">
<svg version="1.0" xmlns="http://www.w3.org/2000/svg"
 width="30.000000pt" height="18.000000pt" viewBox="0 0 30.000000 18.000000"
 preserveAspectRatio="xMidYMid meet">

<g transform="translate(0.000000,18.000000) scale(0.100000,-0.100000)"
fill="#000000" stroke="none">
<path d="M80 140 c-30 -22 -56 -44 -58 -48 -2 -8 109 -92 122 -92 3 0 6 16 6
35 0 19 2 35 5 35 3 0 27 -16 54 -35 26 -19 51 -35 55 -35 3 0 6 40 6 90 0 50
-3 90 -6 90 -4 0 -29 -16 -55 -35 -27 -19 -51 -35 -54 -35 -3 0 -5 16 -5 35 0
19 -3 35 -7 35 -5 0 -33 -19 -63 -40z"/>
</g>
</svg>
